solid COMSOL mesh mesh1
facet normal -0.0923038795590401 -0.995730876922607 0
outer loop
vertex -0.183819636702538 -0.982959985733032 0.818736433982849
vertex -1.83697014652885e-16 -1 0.666666686534882
vertex -1.83697014652885e-16 -1 1
endloop
endfacet
facet normal -0.194014549255371 -0.975356698036194 0.105060249567032
outer loop
vertex -0.183819636702538 -0.982959985733032 0.818736433982849
vertex -1.83697014652885e-16 -1 1
vertex -0.382682830095291 -0.923878073692322 1
endloop
endfacet
facet normal -0.11175873875618 -0.993735373020172 -0
outer loop
vertex -1.83697014652885e-16 -1 0.333333343267441
vertex -0.222117215394974 -0.975019991397858 0.333336025476456
vertex -1.83697014652885e-16 -1 0
endloop
endfacet
facet normal -0.11175873875618 -0.993735373020172 0
outer loop
vertex -1.83697014652885e-16 -1 0.333333343267441
vertex -1.83697014652885e-16 -1 0.666666686534882
vertex -0.222117215394974 -0.975019991397858 0.333336025476456
endloop
endfacet
facet normal -0.160342827439308 -0.983513593673706 -0.0836134627461433
outer loop
vertex -0.183819636702538 -0.982959985733032 0.818736433982849
vertex -0.325700521469116 -0.945472955703735 0.649871349334717
vertex -1.83697014652885e-16 -1 0.666666686534882
endloop
endfacet
facet normal -0.272129356861115 -0.962142944335938 0.0150540135800838
outer loop
vertex -0.183819636702538 -0.982959985733032 0.818736433982849
vertex -0.382682830095291 -0.923878073692322 1
vertex -0.325700521469116 -0.945472955703735 0.649871349334717
endloop
endfacet
facet normal -0.166875168681145 -0.985269904136658 0.0373616255819798
outer loop
vertex -0.325700521469116 -0.945472955703735 0.649871349334717
vertex -0.222117215394974 -0.975019991397858 0.333336025476456
vertex -1.83697014652885e-16 -1 0.666666686534882
endloop
endfacet
facet normal -0.194783568382263 -0.97922271490097 -0.0564108565449715
outer loop
vertex -0.382682830095291 -0.923878073692322 0
vertex -1.83697014652885e-16 -1 0
vertex -0.222117215394974 -0.975019991397858 0.333336025476456
endloop
endfacet
facet normal -0.457307279109955 -0.889092981815338 -0.0195885971188545
outer loop
vertex -0.569726765155792 -0.821834146976471 0.735052227973938
vertex -0.325700521469116 -0.945472955703735 0.649871349334717
vertex -0.382682830095291 -0.923878073692322 1
endloop
endfacet
facet normal -0.554133594036102 -0.829326689243317 0.0717862546443939
outer loop
vertex -0.569726765155792 -0.821834146976471 0.735052227973938
vertex -0.382682830095291 -0.923878073692322 1
vertex -0.70710676908493 -0.70710676908493 1
endloop
endfacet
facet normal -0.398730903863907 -0.915615856647491 0.0515879765152931
outer loop
vertex -0.222117215394974 -0.975019991397858 0.333336025476456
vertex -0.573032677173615 -0.819532513618469 0.380749106407166
vertex -0.382682830095291 -0.923878073692322 0
endloop
endfacet
facet normal -0.452397555112839 -0.891815006732941 -0.00157228542957455
outer loop
vertex -0.569726765155792 -0.821834146976471 0.735052227973938
vertex -0.573032677173615 -0.819532513618469 0.380749106407166
vertex -0.325700521469116 -0.945472955703735 0.649871349334717
endloop
endfacet
facet normal -0.41016474366188 -0.910682559013367 -0.0492150411009789
outer loop
vertex -0.325700521469116 -0.945472955703735 0.649871349334717
vertex -0.573032677173615 -0.819532513618469 0.380749106407166
vertex -0.222117215394974 -0.975019991397858 0.333336025476456
endloop
endfacet
facet normal -0.554877102375031 -0.830439388751984 -0.0498178862035275
outer loop
vertex -0.70710676908493 -0.70710676908493 0
vertex -0.382682830095291 -0.923878073692322 0
vertex -0.573032677173615 -0.819532513618469 0.380749106407166
endloop
endfacet
facet normal -0.678227066993713 -0.734074473381042 -0.03380436450243
outer loop
vertex -0.569726765155792 -0.821834146976471 0.735052227973938
vertex -0.70710676908493 -0.70710676908493 1
vertex -0.7870734333992 -0.616859316825867 0.644637048244476
endloop
endfacet
facet normal -0.686467111110687 -0.727158904075623 0.00168141361791641
outer loop
vertex -0.569726765155792 -0.821834146976471 0.735052227973938
vertex -0.7870734333992 -0.616859316825867 0.644637048244476
vertex -0.573032677173615 -0.819532513618469 0.380749106407166
endloop
endfacet
facet normal -0.83059298992157 -0.554979741573334 0.0459649190306664
outer loop
vertex -0.70710676908493 -0.70710676908493 1
vertex -0.923878073692322 -0.382682830095291 1
vertex -0.7870734333992 -0.616859316825867 0.644637048244476
endloop
endfacet
facet normal -0.734463095664978 -0.676079213619232 0.0589988753199577
outer loop
vertex -0.852415323257446 -0.522865235805511 0.302346259355545
vertex -0.70710676908493 -0.70710676908493 0
vertex -0.573032677173615 -0.819532513618469 0.380749106407166
endloop
endfacet
facet normal -0.720018863677979 -0.691960752010345 -0.0525657720863819
outer loop
vertex -0.7870734333992 -0.616859316825867 0.644637048244476
vertex -0.852415323257446 -0.522865235805511 0.302346259355545
vertex -0.573032677173615 -0.819532513618469 0.380749106407166
endloop
endfacet
facet normal -0.97605162858963 -0.194152787327766 0.0981220826506615
outer loop
vertex -0.985185563564301 -0.171491608023643 0.808035731315613
vertex -0.923878073692322 -0.382682830095291 1
vertex -1 1.22464685258517e-16 1
endloop
endfacet
facet normal -0.829926133155823 -0.554534137248993 -0.0609472170472145
outer loop
vertex -0.852415323257446 -0.522865235805511 0.302346259355545
vertex -0.923878073692322 -0.382682830095291 0
vertex -0.70710676908493 -0.70710676908493 0
endloop
endfacet
facet normal -0.869543552398682 -0.493767440319061 -0.00936749111860991
outer loop
vertex -0.93476414680481 -0.355268836021423 0.565498054027557
vertex -0.7870734333992 -0.616859316825867 0.644637048244476
vertex -0.923878073692322 -0.382682830095291 1
endloop
endfacet
facet normal -0.961987137794495 -0.273008078336716 0.00687695108354092
outer loop
vertex -0.985185563564301 -0.171491608023643 0.808035731315613
vertex -0.93476414680481 -0.355268836021423 0.565498054027557
vertex -0.923878073692322 -0.382682830095291 1
endloop
endfacet
facet normal -0.874683082103729 -0.483486711978912 0.0342065505683422
outer loop
vertex -0.93476414680481 -0.355268836021423 0.565498054027557
vertex -0.852415323257446 -0.522865235805511 0.302346259355545
vertex -0.7870734333992 -0.616859316825867 0.644637048244476
endloop
endfacet
facet normal -0.911691844463348 -0.410091876983643 0.0253494251519442
outer loop
vertex -0.952861964702606 -0.303404152393341 0.240130037069321
vertex -0.923878073692322 -0.382682830095291 0
vertex -0.852415323257446 -0.522865235805511 0.302346259355545
endloop
endfacet
facet normal -0.907384932041168 -0.419977575540543 -0.0164746958762407
outer loop
vertex -0.852415323257446 -0.522865235805511 0.302346259355545
vertex -0.93476414680481 -0.355268836021423 0.565498054027557
vertex -0.952861964702606 -0.303404152393341 0.240130037069321
endloop
endfacet
facet normal -0.996289491653442 -0.0860651507973671 0
outer loop
vertex -0.985185563564301 -0.171491608023643 0.808035731315613
vertex -1 1.22464685258517e-16 1
vertex -1 1.22464685258517e-16 0.666666686534882
endloop
endfacet
facet normal -0.983964800834656 -0.156113758683205 -0.0862659364938736
outer loop
vertex -0.985185563564301 -0.171491608023643 0.808035731315613
vertex -1 1.22464685258517e-16 0.666666686534882
vertex -0.93476414680481 -0.355268836021423 0.565498054027557
endloop
endfacet
facet normal -0.979359149932861 -0.194810703396797 -0.0538929142057896
outer loop
vertex -0.952861964702606 -0.303404152393341 0.240130037069321
vertex -1 1.22464685258517e-16 0
vertex -0.923878073692322 -0.382682830095291 0
endloop
endfacet
facet normal -0.983555853366852 -0.180604308843613 -0
outer loop
vertex -1 1.22464685258517e-16 0.666666686534882
vertex -1 1.22464685258517e-16 0.333333343267441
vertex -0.93476414680481 -0.355268836021423 0.565498054027557
endloop
endfacet
facet normal -0.988145232200623 -0.153522059321404 1.13538325096277e-32
outer loop
vertex -1 1.22464685258517e-16 0.333333343267441
vertex -1 1.22464685258517e-16 0
vertex -0.952861964702606 -0.303404152393341 0.240130037069321
endloop
endfacet
facet normal -0.98633873462677 -0.162154480814934 0.0290147271007299
outer loop
vertex -0.952861964702606 -0.303404152393341 0.240130037069321
vertex -0.93476414680481 -0.355268836021423 0.565498054027557
vertex -1 1.22464685258517e-16 0.333333343267441
endloop
endfacet
facet normal 0.995730876922607 -0.0923038795590401 0
outer loop
vertex 0.982959985733032 -0.183819636702538 0.818736433982849
vertex 1 0 0.666666686534882
vertex 1 0 1
endloop
endfacet
facet normal 0.983513593673706 -0.160342827439308 -0.0836134627461433
outer loop
vertex 0.982959985733032 -0.183819636702538 0.818736433982849
vertex 0.945472955703735 -0.325700521469116 0.649871349334717
vertex 1 0 0.666666686534882
endloop
endfacet
facet normal 0.993735373020172 -0.11175873875618 0
outer loop
vertex 1 0 0.333333343267441
vertex 0.975019991397858 -0.222117215394974 0.333336025476456
vertex 1 0 0
endloop
endfacet
facet normal 0.993735373020172 -0.11175873875618 0
outer loop
vertex 1 0 0.333333343267441
vertex 1 0 0.666666686534882
vertex 0.975019991397858 -0.222117215394974 0.333336025476456
endloop
endfacet
facet normal 0.985269904136658 -0.166875168681145 0.0373616255819798
outer loop
vertex 0.945472955703735 -0.325700521469116 0.649871349334717
vertex 0.975019991397858 -0.222117215394974 0.333336025476456
vertex 1 0 0.666666686534882
endloop
endfacet
facet normal 0.975356698036194 -0.194014549255371 0.105060249567032
outer loop
vertex 0.982959985733032 -0.183819636702538 0.818736433982849
vertex 1 0 1
vertex 0.923878073692322 -0.382682830095291 1
endloop
endfacet
facet normal 0.962142944335938 -0.272129356861115 0.0150540135800838
outer loop
vertex 0.982959985733032 -0.183819636702538 0.818736433982849
vertex 0.923878073692322 -0.382682830095291 1
vertex 0.945472955703735 -0.325700521469116 0.649871349334717
endloop
endfacet
facet normal 0.889092981815338 -0.457307279109955 -0.0195885971188545
outer loop
vertex 0.821834146976471 -0.569726765155792 0.735052227973938
vertex 0.945472955703735 -0.325700521469116 0.649871349334717
vertex 0.923878073692322 -0.382682830095291 1
endloop
endfacet
facet normal 0.891815006732941 -0.452397555112839 -0.00157228542957455
outer loop
vertex 0.821834146976471 -0.569726765155792 0.735052227973938
vertex 0.819532513618469 -0.573032677173615 0.380749106407166
vertex 0.945472955703735 -0.325700521469116 0.649871349334717
endloop
endfacet
facet normal 0.910682559013367 -0.41016474366188 -0.0492150411009789
outer loop
vertex 0.945472955703735 -0.325700521469116 0.649871349334717
vertex 0.819532513618469 -0.573032677173615 0.380749106407166
vertex 0.975019991397858 -0.222117215394974 0.333336025476456
endloop
endfacet
facet normal 0.97922271490097 -0.194783568382263 -0.0564108565449715
outer loop
vertex 0.923878073692322 -0.382682830095291 0
vertex 1 0 0
vertex 0.975019991397858 -0.222117215394974 0.333336025476456
endloop
endfacet
facet normal 0.915615856647491 -0.398730903863907 0.0515879765152931
outer loop
vertex 0.975019991397858 -0.222117215394974 0.333336025476456
vertex 0.819532513618469 -0.573032677173615 0.380749106407166
vertex 0.923878073692322 -0.382682830095291 0
endloop
endfacet
facet normal 0.829326689243317 -0.554133594036102 0.0717862546443939
outer loop
vertex 0.821834146976471 -0.569726765155792 0.735052227973938
vertex 0.923878073692322 -0.382682830095291 1
vertex 0.70710676908493 -0.70710676908493 1
endloop
endfacet
facet normal 0.734074473381042 -0.678227066993713 -0.03380436450243
outer loop
vertex 0.821834146976471 -0.569726765155792 0.735052227973938
vertex 0.70710676908493 -0.70710676908493 1
vertex 0.616859316825867 -0.7870734333992 0.644637048244476
endloop
endfacet
facet normal 0.727158904075623 -0.686467111110687 0.00168141361791641
outer loop
vertex 0.821834146976471 -0.569726765155792 0.735052227973938
vertex 0.616859316825867 -0.7870734333992 0.644637048244476
vertex 0.819532513618469 -0.573032677173615 0.380749106407166
endloop
endfacet
facet normal 0.691960752010345 -0.720018863677979 -0.0525657720863819
outer loop
vertex 0.616859316825867 -0.7870734333992 0.644637048244476
vertex 0.522865235805511 -0.852415323257446 0.302346259355545
vertex 0.819532513618469 -0.573032677173615 0.380749106407166
endloop
endfacet
facet normal 0.830439388751984 -0.554877102375031 -0.0498178862035275
outer loop
vertex 0.70710676908493 -0.70710676908493 0
vertex 0.923878073692322 -0.382682830095291 0
vertex 0.819532513618469 -0.573032677173615 0.380749106407166
endloop
endfacet
facet normal 0.676079213619232 -0.734463095664978 0.0589988753199577
outer loop
vertex 0.522865235805511 -0.852415323257446 0.302346259355545
vertex 0.70710676908493 -0.70710676908493 0
vertex 0.819532513618469 -0.573032677173615 0.380749106407166
endloop
endfacet
facet normal 0.554979741573334 -0.83059298992157 0.0459649190306664
outer loop
vertex 0.70710676908493 -0.70710676908493 1
vertex 0.382682830095291 -0.923878073692322 1
vertex 0.616859316825867 -0.7870734333992 0.644637048244476
endloop
endfacet
facet normal 0.493767440319061 -0.869543552398682 -0.00936749111860991
outer loop
vertex 0.355268836021423 -0.93476414680481 0.565498054027557
vertex 0.616859316825867 -0.7870734333992 0.644637048244476
vertex 0.382682830095291 -0.923878073692322 1
endloop
endfacet
facet normal 0.483486711978912 -0.874683082103729 0.0342065505683422
outer loop
vertex 0.355268836021423 -0.93476414680481 0.565498054027557
vertex 0.522865235805511 -0.852415323257446 0.302346259355545
vertex 0.616859316825867 -0.7870734333992 0.644637048244476
endloop
endfacet
facet normal 0.273008078336716 -0.961987137794495 0.00687695108354092
outer loop
vertex 0.171491608023643 -0.985185563564301 0.808035731315613
vertex 0.355268836021423 -0.93476414680481 0.565498054027557
vertex 0.382682830095291 -0.923878073692322 1
endloop
endfacet
facet normal 0.419977575540543 -0.907384932041168 -0.0164746958762407
outer loop
vertex 0.522865235805511 -0.852415323257446 0.302346259355545
vertex 0.355268836021423 -0.93476414680481 0.565498054027557
vertex 0.303404152393341 -0.952861964702606 0.240130037069321
endloop
endfacet
facet normal 0.554534137248993 -0.829926133155823 -0.0609472170472145
outer loop
vertex 0.522865235805511 -0.852415323257446 0.302346259355545
vertex 0.382682830095291 -0.923878073692322 0
vertex 0.70710676908493 -0.70710676908493 0
endloop
endfacet
facet normal 0.410091876983643 -0.911691844463348 0.0253494251519442
outer loop
vertex 0.303404152393341 -0.952861964702606 0.240130037069321
vertex 0.382682830095291 -0.923878073692322 0
vertex 0.522865235805511 -0.852415323257446 0.302346259355545
endloop
endfacet
facet normal 0.194152787327766 -0.97605162858963 0.0981220826506615
outer loop
vertex 0.171491608023643 -0.985185563564301 0.808035731315613
vertex 0.382682830095291 -0.923878073692322 1
vertex -1.83697014652885e-16 -1 1
endloop
endfacet
facet normal 0.162154480814934 -0.98633873462677 0.0290147271007299
outer loop
vertex 0.303404152393341 -0.952861964702606 0.240130037069321
vertex 0.355268836021423 -0.93476414680481 0.565498054027557
vertex -1.83697014652885e-16 -1 0.333333343267441
endloop
endfacet
facet normal 0.0860651507973671 -0.996289491653442 0
outer loop
vertex 0.171491608023643 -0.985185563564301 0.808035731315613
vertex -1.83697014652885e-16 -1 1
vertex -1.83697014652885e-16 -1 0.666666686534882
endloop
endfacet
facet normal 0.180604308843613 -0.983555853366852 0
outer loop
vertex -1.83697014652885e-16 -1 0.666666686534882
vertex -1.83697014652885e-16 -1 0.333333343267441
vertex 0.355268836021423 -0.93476414680481 0.565498054027557
endloop
endfacet
facet normal 0.156113758683205 -0.983964800834656 -0.0862659364938736
outer loop
vertex 0.171491608023643 -0.985185563564301 0.808035731315613
vertex -1.83697014652885e-16 -1 0.666666686534882
vertex 0.355268836021423 -0.93476414680481 0.565498054027557
endloop
endfacet
facet normal 0.153522059321404 -0.988145232200623 0
outer loop
vertex -1.83697014652885e-16 -1 0.333333343267441
vertex -1.83697014652885e-16 -1 0
vertex 0.303404152393341 -0.952861964702606 0.240130037069321
endloop
endfacet
facet normal 0.194810703396797 -0.979359149932861 -0.0538929142057896
outer loop
vertex 0.303404152393341 -0.952861964702606 0.240130037069321
vertex -1.83697014652885e-16 -1 0
vertex 0.382682830095291 -0.923878073692322 0
endloop
endfacet
facet normal 0 -1 0
outer loop
vertex 2.83505201339722 0 0.804883658885956
vertex 3 0 0.666666686534882
vertex 3 0 1
endloop
endfacet
facet normal 0 -1 -0
outer loop
vertex 3 0 0.333333343267441
vertex 2.73648238182068 0 0.225767686963081
vertex 3 0 0
endloop
endfacet
facet normal 0 -1 -0
outer loop
vertex 3 0 0.666666686534882
vertex 2.65107417106628 0 0.568893551826477
vertex 3 0 0.333333343267441
endloop
endfacet
facet normal 0 -1 -0
outer loop
vertex 2.83505201339722 0 0.804883658885956
vertex 2.65107417106628 0 0.568893551826477
vertex 3 0 0.666666686534882
endloop
endfacet
facet normal 0 -1 0
outer loop
vertex 2.73648238182068 0 0.225767686963081
vertex 3 0 0.333333343267441
vertex 2.65107417106628 0 0.568893551826477
endloop
endfacet
facet normal 0 -1 0
outer loop
vertex 2.83505201339722 0 0.804883658885956
vertex 3 0 1
vertex 2.59999990463257 0 1
endloop
endfacet
facet normal -0 -1 0
outer loop
vertex 2.83505201339722 0 0.804883658885956
vertex 2.59999990463257 0 1
vertex 2.65107417106628 0 0.568893551826477
endloop
endfacet
facet normal 0 -1 -0
outer loop
vertex 2.73648238182068 0 0.225767686963081
vertex 2.59999990463257 0 0
vertex 3 0 0
endloop
endfacet
facet normal -0 -1 0
outer loop
vertex 2.73648238182068 0 0.225767686963081
vertex 2.42383909225464 0 0.281466275453568
vertex 2.59999990463257 0 0
endloop
endfacet
facet normal 0 -1 0
outer loop
vertex 2.73648238182068 0 0.225767686963081
vertex 2.65107417106628 0 0.568893551826477
vertex 2.42383909225464 0 0.281466275453568
endloop
endfacet
facet normal 0 -1 0
outer loop
vertex 2.65107417106628 0 0.568893551826477
vertex 2.59999990463257 0 1
vertex 2.31059455871582 0 0.643491983413696
endloop
endfacet
facet normal -0 -1 0
outer loop
vertex 2.65107417106628 0 0.568893551826477
vertex 2.31059455871582 0 0.643491983413696
vertex 2.42383909225464 0 0.281466275453568
endloop
endfacet
facet normal 0 -1 0
outer loop
vertex 2.20000004768372 0 1
vertex 2.31059455871582 0 0.643491983413696
vertex 2.59999990463257 0 1
endloop
endfacet
facet normal -0 -1 0
outer loop
vertex 2.31059455871582 0 0.643491983413696
vertex 2.20000004768372 0 1
vertex 1.95743596553802 0 0.640966236591339
endloop
endfacet
facet normal 0 -1 -0
outer loop
vertex 2.42383909225464 0 0.281466275453568
vertex 2.20000004768372 0 0
vertex 2.59999990463257 0 0
endloop
endfacet
facet normal 0 -1 0
outer loop
vertex 2.20000004768372 0 0
vertex 2.42383909225464 0 0.281466275453568
vertex 2.06446480751038 0 0.326098591089249
endloop
endfacet
facet normal 0 -1 0
outer loop
vertex 2.42383909225464 0 0.281466275453568
vertex 2.31059455871582 0 0.643491983413696
vertex 2.06446480751038 0 0.326098591089249
endloop
endfacet
facet normal 0 -1 0
outer loop
vertex 1.95743596553802 0 0.640966236591339
vertex 2.06446480751038 0 0.326098591089249
vertex 2.31059455871582 0 0.643491983413696
endloop
endfacet
facet normal 0 -1 0
outer loop
vertex 1.79999995231628 0 1
vertex 1.95743596553802 0 0.640966236591339
vertex 2.20000004768372 0 1
endloop
endfacet
facet normal 0 -1 0
outer loop
vertex 1.63030099868774 0 0.735502243041992
vertex 1.95743596553802 0 0.640966236591339
vertex 1.79999995231628 0 1
endloop
endfacet
facet normal 0 -1 0
outer loop
vertex 1.63030099868774 0 0.735502243041992
vertex 1.63355827331543 0 0.37003430724144
vertex 1.95743596553802 0 0.640966236591339
endloop
endfacet
facet normal 0 -1 -0
outer loop
vertex 1.95743596553802 0 0.640966236591339
vertex 1.63355827331543 0 0.37003430724144
vertex 2.06446480751038 0 0.326098591089249
endloop
endfacet
facet normal 0 -1 0
outer loop
vertex 2.20000004768372 0 0
vertex 2.06446480751038 0 0.326098591089249
vertex 1.79999995231628 0 0
endloop
endfacet
facet normal 0 -1 0
outer loop
vertex 1.79999995231628 0 0
vertex 2.06446480751038 0 0.326098591089249
vertex 1.63355827331543 0 0.37003430724144
endloop
endfacet
facet normal 0 -1 -0
outer loop
vertex 1.63030099868774 0 0.735502243041992
vertex 1.3369882106781 0 0.643215656280518
vertex 1.63355827331543 0 0.37003430724144
endloop
endfacet
facet normal 0 -1 0
outer loop
vertex 1.63030099868774 0 0.735502243041992
vertex 1.79999995231628 0 1
vertex 1.39999997615814 0 1
endloop
endfacet
facet normal -0 -1 0
outer loop
vertex 1.63030099868774 0 0.735502243041992
vertex 1.39999997615814 0 1
vertex 1.3369882106781 0 0.643215656280518
endloop
endfacet
facet normal 0 -1 0
outer loop
vertex 1.19357645511627 0 0.812042355537415
vertex 1.3369882106781 0 0.643215656280518
vertex 1.39999997615814 0 1
endloop
endfacet
facet normal 0 -1 -0
outer loop
vertex 1.3369882106781 0 0.643215656280518
vertex 1.22616791725159 0 0.33308345079422
vertex 1.63355827331543 0 0.37003430724144
endloop
endfacet
facet normal 0 -1 0
outer loop
vertex 1.79999995231628 0 0
vertex 1.63355827331543 0 0.37003430724144
vertex 1.39999997615814 0 0
endloop
endfacet
facet normal 0 -1 0
outer loop
vertex 1.22616791725159 0 0.33308345079422
vertex 1.39999997615814 0 0
vertex 1.63355827331543 0 0.37003430724144
endloop
endfacet
facet normal 0 -1 -0
outer loop
vertex 1.19357645511627 0 0.812042355537415
vertex 1 0 0.666666686534882
vertex 1.3369882106781 0 0.643215656280518
endloop
endfacet
facet normal -0 -1 0
outer loop
vertex 1.3369882106781 0 0.643215656280518
vertex 1 0 0.666666686534882
vertex 1.22616791725159 0 0.33308345079422
endloop
endfacet
facet normal 0 -1 0
outer loop
vertex 1 0 0.333333343267441
vertex 1.22616791725159 0 0.33308345079422
vertex 1 0 0.666666686534882
endloop
endfacet
facet normal -0 -1 0
outer loop
vertex 1.19357645511627 0 0.812042355537415
vertex 1 0 1
vertex 1 0 0.666666686534882
endloop
endfacet
facet normal 0 -1 0
outer loop
vertex 1.19357645511627 0 0.812042355537415
vertex 1.39999997615814 0 1
vertex 1 0 1
endloop
endfacet
facet normal 0 -1 0
outer loop
vertex 1.39999997615814 0 0
vertex 1.22616791725159 0 0.33308345079422
vertex 1 0 0
endloop
endfacet
facet normal 0 -1 0
outer loop
vertex 1 0 0.333333343267441
vertex 1 0 0
vertex 1.22616791725159 0 0.33308345079422
endloop
endfacet
facet normal 0 0 -1
outer loop
vertex 2.80523920059204 0.812320053577423 0
vertex 3 1 0
vertex 3 0.666666686534882 0
endloop
endfacet
facet normal 0 0 -1
outer loop
vertex 2.80523920059204 0.812320053577423 0
vertex 2.59999990463257 1 0
vertex 3 1 0
endloop
endfacet
facet normal 0 -0 -1
outer loop
vertex 2.80523920059204 0.812320053577423 0
vertex 3 0.666666686534882 0
vertex 2.66206812858582 0.643766522407532 0
endloop
endfacet
facet normal -0 0 -1
outer loop
vertex 2.80523920059204 0.812320053577423 0
vertex 2.66206812858582 0.643766522407532 0
vertex 2.59999990463257 1 0
endloop
endfacet
facet normal 0 -0 -1
outer loop
vertex 3 0.333333343267441 0
vertex 3 0 0
vertex 2.77378845214844 0.33308345079422 0
endloop
endfacet
facet normal -0 0 -1
outer loop
vertex 3 0.333333343267441 0
vertex 2.77378845214844 0.33308345079422 0
vertex 3 0.666666686534882 0
endloop
endfacet
facet normal 0 0 -1
outer loop
vertex 2.66206812858582 0.643766522407532 0
vertex 3 0.666666686534882 0
vertex 2.77378845214844 0.33308345079422 0
endloop
endfacet
facet normal 0 0 -1
outer loop
vertex 2.36182308197021 0.735766291618347 0
vertex 2.20000004768372 1 0
vertex 2.59999990463257 1 0
endloop
endfacet
facet normal 0 0 -1
outer loop
vertex 2.36182308197021 0.735766291618347 0
vertex 2.59999990463257 1 0
vertex 2.66206812858582 0.643766522407532 0
endloop
endfacet
facet normal 0 0 -1
outer loop
vertex 2.59999990463257 0 0
vertex 2.77378845214844 0.33308345079422 0
vertex 3 0 0
endloop
endfacet
facet normal -0 0 -1
outer loop
vertex 2.77378845214844 0.33308345079422 0
vertex 2.59999990463257 0 0
vertex 2.35672926902771 0.381957471370697 0
endloop
endfacet
facet normal 0 -0 -1
outer loop
vertex 2.66206812858582 0.643766522407532 0
vertex 2.77378845214844 0.33308345079422 0
vertex 2.35672926902771 0.381957471370697 0
endloop
endfacet
facet normal 0 -0 -1
outer loop
vertex 2.36182308197021 0.735766291618347 0
vertex 2.66206812858582 0.643766522407532 0
vertex 2.35672926902771 0.381957471370697 0
endloop
endfacet
facet normal -0 0 -1
outer loop
vertex 2.20000004768372 1 0
vertex 2.02232098579407 0.644940316677094 0
vertex 1.79999995231628 1 0
endloop
endfacet
facet normal -0 0 -1
outer loop
vertex 2.36182308197021 0.735766291618347 0
vertex 2.02232098579407 0.644940316677094 0
vertex 2.20000004768372 1 0
endloop
endfacet
facet normal 0 0 -1
outer loop
vertex 2.36182308197021 0.735766291618347 0
vertex 2.35672926902771 0.381957471370697 0
vertex 2.02232098579407 0.644940316677094 0
endloop
endfacet
facet normal 0 0 -1
outer loop
vertex 2.20000004768372 0 0
vertex 2.35672926902771 0.381957471370697 0
vertex 2.59999990463257 0 0
endloop
endfacet
facet normal 0 0 -1
outer loop
vertex 2.20000004768372 0 0
vertex 1.91804552078247 0.320380419492722 0
vertex 2.35672926902771 0.381957471370697 0
endloop
endfacet
facet normal 0 -0 -1
outer loop
vertex 2.02232098579407 0.644940316677094 0
vertex 2.35672926902771 0.381957471370697 0
vertex 1.91804552078247 0.320380419492722 0
endloop
endfacet
facet normal -0 0 -1
outer loop
vertex 1.79999995231628 1 0
vertex 1.68302941322327 0.645770668983459 0
vertex 1.39999997615814 1 0
endloop
endfacet
facet normal 0 0 -1
outer loop
vertex 1.68302941322327 0.645770668983459 0
vertex 1.79999995231628 1 0
vertex 2.02232098579407 0.644940316677094 0
endloop
endfacet
facet normal -0 0 -1
outer loop
vertex 2.02232098579407 0.644940316677094 0
vertex 1.91804552078247 0.320380419492722 0
vertex 1.68302941322327 0.645770668983459 0
endloop
endfacet
facet normal 0 0 -1
outer loop
vertex 1.15913021564484 0.803064048290253 0
vertex 1 1 0
vertex 1.39999997615814 1 0
endloop
endfacet
facet normal 0 0 -1
outer loop
vertex 1.79999995231628 0 0
vertex 1.91804552078247 0.320380419492722 0
vertex 2.20000004768372 0 0
endloop
endfacet
facet normal 0 0 -1
outer loop
vertex 1.91804552078247 0.320380419492722 0
vertex 1.79999995231628 0 0
vertex 1.56289422512054 0.287841945886612 0
endloop
endfacet
facet normal 0 0 -1
outer loop
vertex 1.56289422512054 0.287841945886612 0
vertex 1.68302941322327 0.645770668983459 0
vertex 1.91804552078247 0.320380419492722 0
endloop
endfacet
facet normal 0 0 -1
outer loop
vertex 1.33250427246094 0.58625316619873 0
vertex 1.39999997615814 1 0
vertex 1.68302941322327 0.645770668983459 0
endloop
endfacet
facet normal 0 0 -1
outer loop
vertex 1.15913021564484 0.803064048290253 0
vertex 1.39999997615814 1 0
vertex 1.33250427246094 0.58625316619873 0
endloop
endfacet
facet normal 0 0 -1
outer loop
vertex 1.33250427246094 0.58625316619873 0
vertex 1.68302941322327 0.645770668983459 0
vertex 1.56289422512054 0.287841945886612 0
endloop
endfacet
facet normal -0 0 -1
outer loop
vertex 1.15913021564484 0.803064048290253 0
vertex 1 0.666666686534882 0
vertex 1 1 0
endloop
endfacet
facet normal 0 -0 -1
outer loop
vertex 1.15913021564484 0.803064048290253 0
vertex 1.33250427246094 0.58625316619873 0
vertex 1 0.666666686534882 0
endloop
endfacet
facet normal 0 -0 -1
outer loop
vertex 1.56289422512054 0.287841945886612 0
vertex 1.79999995231628 0 0
vertex 1.39999997615814 0 0
endloop
endfacet
facet normal 0 0 -1
outer loop
vertex 1.25266754627228 0.226167663931847 0
vertex 1.56289422512054 0.287841945886612 0
vertex 1.39999997615814 0 0
endloop
endfacet
facet normal 0 0 -1
outer loop
vertex 1.25266754627228 0.226167663931847 0
vertex 1.33250427246094 0.58625316619873 0
vertex 1.56289422512054 0.287841945886612 0
endloop
endfacet
facet normal 0 0 -1
outer loop
vertex 1 0.666666686534882 0
vertex 1.33250427246094 0.58625316619873 0
vertex 1 0.333333343267441 0
endloop
endfacet
facet normal 0 0 -1
outer loop
vertex 1.25266754627228 0.226167663931847 0
vertex 1 0.333333343267441 0
vertex 1.33250427246094 0.58625316619873 0
endloop
endfacet
facet normal 0 0 -1
outer loop
vertex 1 0.333333343267441 0
vertex 1.25266754627228 0.226167663931847 0
vertex 1 0 0
endloop
endfacet
facet normal 0 -0 -1
outer loop
vertex 1.25266754627228 0.226167663931847 0
vertex 1.39999997615814 0 0
vertex 1 0 0
endloop
endfacet
facet normal 0 -0 1
outer loop
vertex 3 0.666666686534882 1
vertex 3 1 1
vertex 2.73778867721558 0.788614392280579 1
endloop
endfacet
facet normal 0 -0 1
outer loop
vertex 2.73778867721558 0.788614392280579 1
vertex 3 1 1
vertex 2.59999990463257 1 1
endloop
endfacet
facet normal 0 0 1
outer loop
vertex 3 0.333333343267441 1
vertex 2.7370810508728 0.334396094083786 1
vertex 3 0 1
endloop
endfacet
facet normal 0 -0 1
outer loop
vertex 3 0.333333343267441 1
vertex 3 0.666666686534882 1
vertex 2.7370810508728 0.334396094083786 1
endloop
endfacet
facet normal 0 0 1
outer loop
vertex 2.73778867721558 0.788614392280579 1
vertex 2.68390393257141 0.610953450202942 1
vertex 3 0.666666686534882 1
endloop
endfacet
facet normal -0 0 1
outer loop
vertex 2.68390393257141 0.610953450202942 1
vertex 2.7370810508728 0.334396094083786 1
vertex 3 0.666666686534882 1
endloop
endfacet
facet normal 0 0 1
outer loop
vertex 2.73778867721558 0.788614392280579 1
vertex 2.59999990463257 1 1
vertex 2.47016358375549 0.751881539821625 1
endloop
endfacet
facet normal 0 -0 1
outer loop
vertex 2.68390393257141 0.610953450202942 1
vertex 2.73778867721558 0.788614392280579 1
vertex 2.47016358375549 0.751881539821625 1
endloop
endfacet
facet normal 0 -0 1
outer loop
vertex 2.47016358375549 0.751881539821625 1
vertex 2.59999990463257 1 1
vertex 2.20000004768372 1 1
endloop
endfacet
facet normal 0 0 1
outer loop
vertex 2.59999990463257 0 1
vertex 3 0 1
vertex 2.7370810508728 0.334396094083786 1
endloop
endfacet
facet normal 0 0 1
outer loop
vertex 2.7370810508728 0.334396094083786 1
vertex 2.39637207984924 0.380934417247772 1
vertex 2.59999990463257 0 1
endloop
endfacet
facet normal 0 0 1
outer loop
vertex 2.7370810508728 0.334396094083786 1
vertex 2.68390393257141 0.610953450202942 1
vertex 2.39637207984924 0.380934417247772 1
endloop
endfacet
facet normal 0 0 1
outer loop
vertex 2.68390393257141 0.610953450202942 1
vertex 2.47016358375549 0.751881539821625 1
vertex 2.39637207984924 0.380934417247772 1
endloop
endfacet
facet normal 0 0 1
outer loop
vertex 2.20000004768372 1 1
vertex 2.07476544380188 0.687790095806122 1
vertex 2.47016358375549 0.751881539821625 1
endloop
endfacet
facet normal 0 0 1
outer loop
vertex 2.47016358375549 0.751881539821625 1
vertex 2.07476544380188 0.687790095806122 1
vertex 2.39637207984924 0.380934417247772 1
endloop
endfacet
facet normal 0 0 1
outer loop
vertex 2.20000004768372 1 1
vertex 1.79999995231628 1 1
vertex 2.07476544380188 0.687790095806122 1
endloop
endfacet
facet normal 0 0 1
outer loop
vertex 2.20000004768372 0 1
vertex 2.59999990463257 0 1
vertex 2.39637207984924 0.380934417247772 1
endloop
endfacet
facet normal 0 -0 1
outer loop
vertex 2.20000004768372 0 1
vertex 2.39637207984924 0.380934417247772 1
vertex 1.94716596603394 0.354410976171494 1
endloop
endfacet
facet normal 0 0 1
outer loop
vertex 2.07476544380188 0.687790095806122 1
vertex 1.94716596603394 0.354410976171494 1
vertex 2.39637207984924 0.380934417247772 1
endloop
endfacet
facet normal 0 0 1
outer loop
vertex 1.79999995231628 1 1
vertex 1.39999997615814 1 1
vertex 1.68154549598694 0.692645788192749 1
endloop
endfacet
facet normal -0 0 1
outer loop
vertex 1.68154549598694 0.692645788192749 1
vertex 2.07476544380188 0.687790095806122 1
vertex 1.79999995231628 1 1
endloop
endfacet
facet normal 0 0 1
outer loop
vertex 2.07476544380188 0.687790095806122 1
vertex 1.68154549598694 0.692645788192749 1
vertex 1.94716596603394 0.354410976171494 1
endloop
endfacet
facet normal 0 -0 1
outer loop
vertex 1.18922626972198 0.816770970821381 1
vertex 1.39999997615814 1 1
vertex 1 1 1
endloop
endfacet
facet normal 0 0 1
outer loop
vertex 1.79999995231628 0 1
vertex 2.20000004768372 0 1
vertex 1.94716596603394 0.354410976171494 1
endloop
endfacet
facet normal -0 0 1
outer loop
vertex 1.59942674636841 0.287687063217163 1
vertex 1.79999995231628 0 1
vertex 1.94716596603394 0.354410976171494 1
endloop
endfacet
facet normal 0 0 1
outer loop
vertex 1.59942674636841 0.287687063217163 1
vertex 1.94716596603394 0.354410976171494 1
vertex 1.68154549598694 0.692645788192749 1
endloop
endfacet
facet normal 0 0 1
outer loop
vertex 1.36310613155365 0.605580925941467 1
vertex 1.68154549598694 0.692645788192749 1
vertex 1.39999997615814 1 1
endloop
endfacet
facet normal -0 0 1
outer loop
vertex 1.18922626972198 0.816770970821381 1
vertex 1.36310613155365 0.605580925941467 1
vertex 1.39999997615814 1 1
endloop
endfacet
facet normal -0 0 1
outer loop
vertex 1.36310613155365 0.605580925941467 1
vertex 1.59942674636841 0.287687063217163 1
vertex 1.68154549598694 0.692645788192749 1
endloop
endfacet
facet normal 0 0 1
outer loop
vertex 1.18922626972198 0.816770970821381 1
vertex 1 1 1
vertex 1 0.666666686534882 1
endloop
endfacet
facet normal 0 0 1
outer loop
vertex 1.18922626972198 0.816770970821381 1
vertex 1 0.666666686534882 1
vertex 1.36310613155365 0.605580925941467 1
endloop
endfacet
facet normal 5.55111512312578e-16 3.87019438586518e-16 1
outer loop
vertex 1.59942674636841 0.287687063217163 1
vertex 1.39999997615814 0 1
vertex 1.79999995231628 0 1
endloop
endfacet
facet normal -1.15482897076765e-16 8.51880410932318e-16 1
outer loop
vertex 1.32481908798218 0.250460624694824 1
vertex 1.39999997615814 0 1
vertex 1.59942674636841 0.287687063217163 1
endloop
endfacet
facet normal 0 0 1
outer loop
vertex 1.32481908798218 0.250460624694824 1
vertex 1.59942674636841 0.287687063217163 1
vertex 1.36310613155365 0.605580925941467 1
endloop
endfacet
facet normal 0 0 1
outer loop
vertex 1 0.666666686534882 1
vertex 1 0.333333343267441 1
vertex 1.36310613155365 0.605580925941467 1
endloop
endfacet
facet normal 0 -0 1
outer loop
vertex 1.32481908798218 0.250460624694824 1
vertex 1.36310613155365 0.605580925941467 1
vertex 1 0.333333343267441 1
endloop
endfacet
facet normal 0 0 1
outer loop
vertex 1 0.333333343267441 1
vertex 1 0 1
vertex 1.32481908798218 0.250460624694824 1
endloop
endfacet
facet normal -5.55111512312578e-16 7.19916859975275e-16 1
outer loop
vertex 1.39999997615814 0 1
vertex 1.32481908798218 0.250460624694824 1
vertex 1 0 1
endloop
endfacet
facet normal 0 1 -0
outer loop
vertex 3 1 0.666666686534882
vertex 2.74969458580017 1 0.753718733787537
vertex 3 1 1
endloop
endfacet
facet normal -0 1 0
outer loop
vertex 2.72318363189697 1 0.498564660549164
vertex 3 1 0.666666686534882
vertex 3 1 0.333333343267441
endloop
endfacet
facet normal 0 1 0
outer loop
vertex 2.74969458580017 1 0.753718733787537
vertex 3 1 0.666666686534882
vertex 2.72318363189697 1 0.498564660549164
endloop
endfacet
facet normal 0 1 0
outer loop
vertex 3 1 0.333333343267441
vertex 3 1 0
vertex 2.72830104827881 1 0.253455698490143
endloop
endfacet
facet normal 0 1 -0
outer loop
vertex 2.72830104827881 1 0.253455698490143
vertex 2.72318363189697 1 0.498564660549164
vertex 3 1 0.333333343267441
endloop
endfacet
facet normal 0 1 -0
outer loop
vertex 2.74969458580017 1 0.753718733787537
vertex 2.59999990463257 1 1
vertex 3 1 1
endloop
endfacet
facet normal 0 1 0
outer loop
vertex 2.74969458580017 1 0.753718733787537
vertex 2.41537308692932 1 0.675212442874908
vertex 2.59999990463257 1 1
endloop
endfacet
facet normal 0 1 0
outer loop
vertex 2.74969458580017 1 0.753718733787537
vertex 2.72318363189697 1 0.498564660549164
vertex 2.41537308692932 1 0.675212442874908
endloop
endfacet
facet normal 0 1 0
outer loop
vertex 2.72830104827881 1 0.253455698490143
vertex 2.47731637954712 1 0.310185879468918
vertex 2.72318363189697 1 0.498564660549164
endloop
endfacet
facet normal 0 1 0
outer loop
vertex 2.72318363189697 1 0.498564660549164
vertex 2.47731637954712 1 0.310185879468918
vertex 2.41537308692932 1 0.675212442874908
endloop
endfacet
facet normal 0 1 0
outer loop
vertex 2.72830104827881 1 0.253455698490143
vertex 3 1 0
vertex 2.59999990463257 1 0
endloop
endfacet
facet normal 0 1 0
outer loop
vertex 2.72830104827881 1 0.253455698490143
vertex 2.59999990463257 1 0
vertex 2.47731637954712 1 0.310185879468918
endloop
endfacet
facet normal 0 1 -0
outer loop
vertex 2.41537308692932 1 0.675212442874908
vertex 2.20000004768372 1 1
vertex 2.59999990463257 1 1
endloop
endfacet
facet normal 0 1 0
outer loop
vertex 2.20000004768372 1 1
vertex 2.41537308692932 1 0.675212442874908
vertex 1.96817910671234 1 0.669403672218323
endloop
endfacet
facet normal 0 1 0
outer loop
vertex 2.47731637954712 1 0.310185879468918
vertex 2.0932514667511 1 0.357379883527756
vertex 2.41537308692932 1 0.675212442874908
endloop
endfacet
facet normal -0 1 0
outer loop
vertex 1.96817910671234 1 0.669403672218323
vertex 2.41537308692932 1 0.675212442874908
vertex 2.0932514667511 1 0.357379883527756
endloop
endfacet
facet normal 0 1 0
outer loop
vertex 2.59999990463257 1 0
vertex 2.20000004768372 1 0
vertex 2.47731637954712 1 0.310185879468918
endloop
endfacet
facet normal 0 1 0
outer loop
vertex 2.0932514667511 1 0.357379883527756
vertex 2.47731637954712 1 0.310185879468918
vertex 2.20000004768372 1 0
endloop
endfacet
facet normal -0 1 0
outer loop
vertex 1.79999995231628 1 1
vertex 2.20000004768372 1 1
vertex 1.96817910671234 1 0.669403672218323
endloop
endfacet
facet normal -0 1 0
outer loop
vertex 1.63090324401855 1 0.739209771156311
vertex 1.79999995231628 1 1
vertex 1.96817910671234 1 0.669403672218323
endloop
endfacet
facet normal 0 1 0
outer loop
vertex 1.197909116745 1 0.813198029994965
vertex 1.34730017185211 1 0.635813415050507
vertex 1 1 0.666666686534882
endloop
endfacet
facet normal 0 1 0
outer loop
vertex 1.63090324401855 1 0.739209771156311
vertex 1.96817910671234 1 0.669403672218323
vertex 1.65206456184387 1 0.376893252134323
endloop
endfacet
facet normal 0 1 0
outer loop
vertex 1.96817910671234 1 0.669403672218323
vertex 2.0932514667511 1 0.357379883527756
vertex 1.65206456184387 1 0.376893252134323
endloop
endfacet
facet normal 0 1 0
outer loop
vertex 1.63090324401855 1 0.739209771156311
vertex 1.65206456184387 1 0.376893252134323
vertex 1.34730017185211 1 0.635813415050507
endloop
endfacet
facet normal 0 1 0
outer loop
vertex 2.20000004768372 1 0
vertex 1.79999995231628 1 0
vertex 2.0932514667511 1 0.357379883527756
endloop
endfacet
facet normal 0 1 0
outer loop
vertex 1.65206456184387 1 0.376893252134323
vertex 2.0932514667511 1 0.357379883527756
vertex 1.79999995231628 1 0
endloop
endfacet
facet normal 0 1 0
outer loop
vertex 1.26929020881653 1 0.333889424800873
vertex 1.34730017185211 1 0.635813415050507
vertex 1.65206456184387 1 0.376893252134323
endloop
endfacet
facet normal 0 1 0
outer loop
vertex 1.34730017185211 1 0.635813415050507
vertex 1.26929020881653 1 0.333889424800873
vertex 1 1 0.666666686534882
endloop
endfacet
facet normal 0 1 0
outer loop
vertex 1 1 0.333333343267441
vertex 1 1 0.666666686534882
vertex 1.26929020881653 1 0.333889424800873
endloop
endfacet
facet normal 0 1 -0
outer loop
vertex 1.63090324401855 1 0.739209771156311
vertex 1.39999997615814 1 1
vertex 1.79999995231628 1 1
endloop
endfacet
facet normal 0 1 0
outer loop
vertex 1.63090324401855 1 0.739209771156311
vertex 1.34730017185211 1 0.635813415050507
vertex 1.39999997615814 1 1
endloop
endfacet
facet normal -0 1 0
outer loop
vertex 1.197909116745 1 0.813198029994965
vertex 1.39999997615814 1 1
vertex 1.34730017185211 1 0.635813415050507
endloop
endfacet
facet normal 0 1 0
outer loop
vertex 1.197909116745 1 0.813198029994965
vertex 1 1 0.666666686534882
vertex 1 1 1
endloop
endfacet
facet normal 0 1 -0
outer loop
vertex 1.197909116745 1 0.813198029994965
vertex 1 1 1
vertex 1.39999997615814 1 1
endloop
endfacet
facet normal 0 1 0
outer loop
vertex 1.79999995231628 1 0
vertex 1.39999997615814 1 0
vertex 1.65206456184387 1 0.376893252134323
endloop
endfacet
facet normal -0 1 0
outer loop
vertex 1.26929020881653 1 0.333889424800873
vertex 1.65206456184387 1 0.376893252134323
vertex 1.39999997615814 1 0
endloop
endfacet
facet normal 0 1 0
outer loop
vertex 1.39999997615814 1 0
vertex 1 1 0
vertex 1.26929020881653 1 0.333889424800873
endloop
endfacet
facet normal -0 1 0
outer loop
vertex 1 1 0.333333343267441
vertex 1.26929020881653 1 0.333889424800873
vertex 1 1 0
endloop
endfacet
facet normal 1 0 0
outer loop
vertex 3 0.691371381282806 0.767618417739868
vertex 3 0.694168388843536 0.54786205291748
vertex 3 1 0.666666686534882
endloop
endfacet
facet normal 1 0 -0
outer loop
vertex 3 1 0.666666686534882
vertex 3 1 1
vertex 3 0.691371381282806 0.767618417739868
endloop
endfacet
facet normal 1 0 0
outer loop
vertex 3 0.694168388843536 0.54786205291748
vertex 3 0.691371381282806 0.767618417739868
vertex 3 0.373805731534958 0.563964784145355
endloop
endfacet
facet normal 1 0 -0
outer loop
vertex 3 1 0.333333343267441
vertex 3 1 0.666666686534882
vertex 3 0.780137658119202 0.334563165903091
endloop
endfacet
facet normal 1 -0 0
outer loop
vertex 3 0.694168388843536 0.54786205291748
vertex 3 0.780137658119202 0.334563165903091
vertex 3 1 0.666666686534882
endloop
endfacet
facet normal 1 -0 0
outer loop
vertex 3 0.57735288143158 0.351207464933395
vertex 3 0.780137658119202 0.334563165903091
vertex 3 0.694168388843536 0.54786205291748
endloop
endfacet
facet normal 1 0 -0
outer loop
vertex 3 0.57735288143158 0.351207464933395
vertex 3 0.694168388843536 0.54786205291748
vertex 3 0.373805731534958 0.563964784145355
endloop
endfacet
facet normal 1 0 0
outer loop
vertex 3 1 0.333333343267441
vertex 3 0.780137658119202 0.334563165903091
vertex 3 1 0
endloop
endfacet
facet normal 1 0 0
outer loop
vertex 3 0.34318408370018 0.774332344532013
vertex 3 0.373805731534958 0.563964784145355
vertex 3 0.691371381282806 0.767618417739868
endloop
endfacet
facet normal 1 -0 0
outer loop
vertex 3 0.666666686534882 1
vertex 3 0.691371381282806 0.767618417739868
vertex 3 1 1
endloop
endfacet
facet normal 1 -0 0
outer loop
vertex 3 0.333333343267441 1
vertex 3 0.34318408370018 0.774332344532013
vertex 3 0.666666686534882 1
endloop
endfacet
facet normal 1 0 0
outer loop
vertex 3 0.691371381282806 0.767618417739868
vertex 3 0.666666686534882 1
vertex 3 0.34318408370018 0.774332344532013
endloop
endfacet
facet normal 1 0 0
outer loop
vertex 3 0.57735288143158 0.351207464933395
vertex 3 0.373805731534958 0.563964784145355
vertex 3 0.333858340978622 0.264374673366547
endloop
endfacet
facet normal 1 0 -0
outer loop
vertex 3 0.333858340978622 0.264374673366547
vertex 3 0.373805731534958 0.563964784145355
vertex 3 0 0.333333343267441
endloop
endfacet
facet normal 1 0 0
outer loop
vertex 3 0 0.666666686534882
vertex 3 0 0.333333343267441
vertex 3 0.373805731534958 0.563964784145355
endloop
endfacet
facet normal 1 0 0
outer loop
vertex 3 0.34318408370018 0.774332344532013
vertex 3 0 0.666666686534882
vertex 3 0.373805731534958 0.563964784145355
endloop
endfacet
facet normal 1 0 0
outer loop
vertex 3 0.666666686534882 0
vertex 3 1 0
vertex 3 0.780137658119202 0.334563165903091
endloop
endfacet
facet normal 1 0 0
outer loop
vertex 3 0.780137658119202 0.334563165903091
vertex 3 0.57735288143158 0.351207464933395
vertex 3 0.666666686534882 0
endloop
endfacet
facet normal 1 0 0
outer loop
vertex 3 0.57735288143158 0.351207464933395
vertex 3 0.333858340978622 0.264374673366547
vertex 3 0.666666686534882 0
endloop
endfacet
facet normal 1 0 0
outer loop
vertex 3 0.333333343267441 0
vertex 3 0.666666686534882 0
vertex 3 0.333858340978622 0.264374673366547
endloop
endfacet
facet normal 1 0 0
outer loop
vertex 3 0 0.666666686534882
vertex 3 0.34318408370018 0.774332344532013
vertex 3 0 1
endloop
endfacet
facet normal 1 0 0
outer loop
vertex 3 0.333333343267441 1
vertex 3 0 1
vertex 3 0.34318408370018 0.774332344532013
endloop
endfacet
facet normal 1 0 0
outer loop
vertex 3 0 0.333333343267441
vertex 3 0 0
vertex 3 0.333858340978622 0.264374673366547
endloop
endfacet
facet normal 1 0 -0
outer loop
vertex 3 0.333333343267441 0
vertex 3 0.333858340978622 0.264374673366547
vertex 3 0 0
endloop
endfacet
endsolid COMSOL mesh mesh1
